<mxfile host="65bd71144e">
    <diagram id="cLqmkRy-XzriXTqdjEUm" name="Page-1">
        <mxGraphModel dx="684" dy="1444" grid="1" gridSize="10" guides="1" tooltips="1" connect="1" arrows="1" fold="1" page="1" pageScale="1" pageWidth="850" pageHeight="1100" math="0" shadow="0">
            <root>
                <mxCell id="0"/>
                <mxCell id="1" parent="0"/>
                <mxCell id="24" value="" style="edgeStyle=none;html=1;" edge="1" parent="1" source="19" target="23">
                    <mxGeometry relative="1" as="geometry"/>
                </mxCell>
                <mxCell id="19" value="Bok&lt;br&gt;&lt;br&gt;Tittel&lt;br&gt;Forfatter&lt;br&gt;ISBN&lt;br&gt;UtgivelsesÃ¥r&lt;br&gt;Sjanger&lt;br&gt;&lt;br&gt;__int__(...)&lt;br&gt;infoOmBok()" style="rounded=0;whiteSpace=wrap;html=1;" vertex="1" parent="1">
                    <mxGeometry x="40" y="-1080" width="160" height="170" as="geometry"/>
                </mxCell>
                <mxCell id="20" value="" style="endArrow=none;html=1;entryX=1;entryY=0.75;entryDx=0;entryDy=0;exitX=0;exitY=0.75;exitDx=0;exitDy=0;" edge="1" parent="1" source="19" target="19">
                    <mxGeometry width="50" height="50" relative="1" as="geometry">
                        <mxPoint x="80" y="-940" as="sourcePoint"/>
                        <mxPoint x="130" y="-990" as="targetPoint"/>
                    </mxGeometry>
                </mxCell>
                <mxCell id="21" value="" style="endArrow=none;html=1;entryX=1;entryY=0.75;entryDx=0;entryDy=0;exitX=0;exitY=0.75;exitDx=0;exitDy=0;" edge="1" parent="1">
                    <mxGeometry width="50" height="50" relative="1" as="geometry">
                        <mxPoint x="40" y="-1040" as="sourcePoint"/>
                        <mxPoint x="200" y="-1040" as="targetPoint"/>
                    </mxGeometry>
                </mxCell>
                <mxCell id="23" value="LydBok&lt;br&gt;&lt;br&gt;Forteller&lt;br&gt;Lengde&lt;br&gt;&lt;br&gt;__int__(...)&lt;br&gt;infoOmBok()&lt;br&gt;&lt;br&gt;" style="whiteSpace=wrap;html=1;rounded=0;" vertex="1" parent="1">
                    <mxGeometry x="60" y="-860" width="120" height="160" as="geometry"/>
                </mxCell>
                <mxCell id="25" value="" style="endArrow=none;html=1;" edge="1" parent="1" target="23">
                    <mxGeometry width="50" height="50" relative="1" as="geometry">
                        <mxPoint x="60" y="-770" as="sourcePoint"/>
                        <mxPoint x="110" y="-812.5" as="targetPoint"/>
                        <Array as="points">
                            <mxPoint x="180" y="-770"/>
                        </Array>
                    </mxGeometry>
                </mxCell>
                <mxCell id="27" value="" style="endArrow=none;html=1;entryX=1;entryY=0.25;entryDx=0;entryDy=0;exitX=0;exitY=0.25;exitDx=0;exitDy=0;" edge="1" parent="1" source="23" target="23">
                    <mxGeometry width="50" height="50" relative="1" as="geometry">
                        <mxPoint x="60" y="-810" as="sourcePoint"/>
                        <mxPoint x="110" y="-860" as="targetPoint"/>
                    </mxGeometry>
                </mxCell>
                <mxCell id="30" value="Bibliotek&lt;br&gt;&lt;br&gt;..&lt;br&gt;..&lt;br&gt;&lt;br&gt;...&lt;br&gt;.." style="rounded=0;whiteSpace=wrap;html=1;" vertex="1" parent="1">
                    <mxGeometry x="340" y="-1080" width="120" height="160" as="geometry"/>
                </mxCell>
                <mxCell id="31" value="" style="endArrow=none;html=1;exitX=1;exitY=0.5;exitDx=0;exitDy=0;" edge="1" parent="1" source="19" target="30">
                    <mxGeometry width="50" height="50" relative="1" as="geometry">
                        <mxPoint x="230" y="-975" as="sourcePoint"/>
                        <mxPoint x="280" y="-1025" as="targetPoint"/>
                    </mxGeometry>
                </mxCell>
            </root>
        </mxGraphModel>
    </diagram>
</mxfile>